<svg width="64" height="64" viewBox="0 0 64 64" fill="none" xmlns="http://www.w3.org/2000/svg">
<circle cx="32" cy="32" r="32" fill="black"/>
<path d="M25.4023 10.9375H28.918V22.75C28.918 23.8359 28.6758 24.7969 28.1914 25.6328C27.7148 26.4609 27.0391 27.1016 26.1641 27.5547C25.2891 28.0078 24.3008 28.2344 23.1992 28.2344C21.3945 28.2344 19.9883 27.7773 18.9805 26.8633C17.9727 25.9414 17.4688 24.6406 17.4688 22.9609H21.0078C21.0078 23.7969 21.1836 24.4141 21.5352 24.8125C21.8867 25.2109 22.4414 25.4102 23.1992 25.4102C23.8711 25.4102 24.4062 25.1797 24.8047 24.7188C25.2031 24.2578 25.4023 23.6016 25.4023 22.75V10.9375ZM35.4453 21.9883V28H31.9297V10.9375H38.5859C39.8672 10.9375 40.9922 11.1719 41.9609 11.6406C42.9375 12.1094 43.6875 12.7773 44.2109 13.6445C44.7344 14.5039 44.9961 15.4844 44.9961 16.5859C44.9961 18.2578 44.4219 19.5781 43.2734 20.5469C42.1328 21.5078 40.5508 21.9883 38.5273 21.9883H35.4453ZM35.4453 19.1406H38.5859C39.5156 19.1406 40.2227 18.9219 40.707 18.4844C41.1992 18.0469 41.4453 17.4219 41.4453 16.6094C41.4453 15.7734 41.1992 15.0977 40.707 14.582C40.2148 14.0664 39.5352 13.8008 38.668 13.7852H35.4453V19.1406ZM32.4102 52H28.8945V44.6875H22.0391V52H18.5234V34.9375H22.0391V41.8516H28.8945V34.9375H32.4102V52Z" fill="white"/>
</svg>
